# xmcd
#
# Track frame offsets: 
#        150
#        16224
#        34335
#        49258
#        68795
#        83256
#
# Disc length: 1367 seconds
#
# Revision: 0
# Processed by: cddbd v1.5.2PL0 Copyright (c) Steve Scherf et al.
# Submitted via: ExactAudioCopy v1.3
#
DISCID=40055506
DTITLE=Bob Evans - An Introduction
DYEAR=1900
DGENRE=Country
TTITLE0=Someone So Much
TTITLE1=Brother, O Brother
TTITLE2=Done You Think It's Time
TTITLE3=Nowhere Without You
TTITLE4=Sadness and Whiskey
TTITLE5=Turn
EXTD=
EXTT0=
EXTT1=
EXTT2=
EXTT3=
EXTT4=
EXTT5=
PLAYORDER=
